<?xml version="1.0" standalone="no"?><!DOCTYPE svg PUBLIC "-//W3C//DTD SVG 1.1//EN" "http://www.w3.org/Graphics/SVG/1.1/DTD/svg11.dtd"><svg t="1621752854027" class="icon" viewBox="0 0 1024 1024" version="1.1" xmlns="http://www.w3.org/2000/svg" p-id="9796" xmlns:xlink="http://www.w3.org/1999/xlink" width="200" height="200"><defs><style type="text/css"></style></defs><path d="M511.893142 495.896482m-191.959928 0a191.959928 191.959928 0 1 0 383.919857 0 191.959928 191.959928 0 1 0-383.919857 0Z" p-id="9797"></path><path d="M14.077061 942.011355l147.041306-147.041305 67.825841 67.825841-147.041305 147.105292a47.989982 47.989982 0 0 1-67.825842 0 47.989982 47.989982 0 0 1 0-67.825841zM942.139328 1009.19733l-147.105291-147.041305 67.889828-67.825841 147.041305 146.977318a47.989982 47.989982 0 0 1 0 67.889828 47.989982 47.989982 0 0 1-67.825842 0z" p-id="9798"></path><path d="M511.893142 991.792963a495.896482 495.896482 0 1 1 495.896482-495.896481A496.536348 496.536348 0 0 1 511.893142 991.792963z m0-895.812999a399.916517 399.916517 0 1 0 399.916518 399.916518A399.916517 399.916517 0 0 0 511.893142 95.979964z" p-id="9799"></path></svg>