<?xml version="1.0" standalone="no"?><!DOCTYPE svg PUBLIC "-//W3C//DTD SVG 1.1//EN" "http://www.w3.org/Graphics/SVG/1.1/DTD/svg11.dtd"><svg t="1621667753841" class="icon" viewBox="0 0 1024 1024" version="1.1" xmlns="http://www.w3.org/2000/svg" p-id="2915" xmlns:xlink="http://www.w3.org/1999/xlink" width="200" height="200"><defs><style type="text/css"></style></defs><path d="M606.05 67c59.565 0 107.973 47.774 108.935 107.083l0.015 1.8v103.818c0 14.912-12.088 27-27 27-14.763 0-26.758-11.847-26.996-26.553L661 279.7V175.883c0-30.003-24.108-54.39-54.041-54.876l-0.909-0.007h-432.1c-30.05 0-54.457 24.088-54.943 53.953l-0.007 0.907 0.557 635.14c0 30.003 24.107 54.391 54.041 54.876l0.909 0.007h163.406c14.912 0 27 12.089 27 27 0 14.763-11.848 26.758-26.553 27H174.507c-59.565 0-107.973-47.773-108.936-107.06l-0.014-1.8L65 175.884c0-59.538 47.813-107.907 107.148-108.868L173.95 67h432.1z" p-id="2916"></path><path d="M295 485c14.912 0 27 12.088 27 27s-12.088 27-27 27h-84c-14.912 0-27-12.088-27-27s12.088-27 27-27h84z m274-196c14.912 0 27 12.088 27 27s-12.088 27-27 27H212c-14.912 0-27-12.088-27-27s12.088-27 27-27h357z" p-id="2917"></path><path d="M673.5 391C830.073 391 957 517.927 957 674.5 957 831.073 830.073 958 673.5 958 516.927 958 390 831.073 390 674.5 390 517.927 516.927 391 673.5 391z m0 54C546.75 445 444 547.75 444 674.5S546.75 904 673.5 904 903 801.25 903 674.5 800.25 445 673.5 445z" p-id="2918"></path><path d="M674 512c14.912 0 27 12.088 27 27v107.541l100.935 116.113c9.783 11.254 8.59 28.307-2.663 38.09-11.254 9.783-28.308 8.59-38.091-2.663L654.243 675.063a26.98 26.98 0 0 1-4.466-7.121A26.897 26.897 0 0 1 647 656V539c0-14.912 12.088-27 27-27z" p-id="2919"></path></svg>