<?xml version="1.0" standalone="no"?><!DOCTYPE svg PUBLIC "-//W3C//DTD SVG 1.1//EN" "http://www.w3.org/Graphics/SVG/1.1/DTD/svg11.dtd"><svg t="1621752350946" class="icon" viewBox="0 0 1024 1024" version="1.1" xmlns="http://www.w3.org/2000/svg" p-id="2367" xmlns:xlink="http://www.w3.org/1999/xlink" width="200" height="200"><defs><style type="text/css"></style></defs><path d="M516.608 520.192c-120.32 0-218.112-97.792-218.112-218.112s97.792-218.112 218.112-218.112 218.112 97.792 218.112 218.112-98.304 218.112-218.112 218.112z m0-381.44C426.496 138.752 353.28 211.968 353.28 302.08s73.216 163.328 163.328 163.328 163.328-73.216 163.328-163.328-73.216-163.328-163.328-163.328zM819.2 929.792H213.504c-50.688 0-92.16-41.472-92.16-92.16 0-160.256 129.024-289.28 287.232-289.28h215.552c158.72 0 286.72 128.512 287.232 287.232 0 52.736-41.472 94.208-92.16 94.208z m-410.624-327.168c-128.512 0-232.448 104.448-232.448 232.448 0 22.528 16.896 39.936 37.888 39.936H819.2c20.992 0 37.888-16.896 37.888-37.888 0-130.56-104.448-234.496-232.448-234.496H408.576z" p-id="2368"></path></svg>